<?xml version="1.0" encoding="UTF-8"?><svg xmlns="http://www.w3.org/2000/svg" xmlns:xlink="http://www.w3.org/1999/xlink" height="283.9" preserveAspectRatio="xMidYMid meet" version="1.0" viewBox="3.7 358.1 992.6 283.9" width="992.6" zoomAndPan="magnify"><g><g id="change1_1"><path d="M 948.671875 641.929688 L 51.328125 641.929688 C 25.019531 641.929688 3.695312 620.605469 3.695312 594.296875 L 3.695312 423.785156 C 3.695312 397.476562 25.019531 376.148438 51.328125 376.148438 L 948.671875 376.148438 C 974.980469 376.148438 996.308594 397.476562 996.308594 423.785156 L 996.308594 594.296875 C 996.308594 620.605469 974.980469 641.929688 948.671875 641.929688" fill="#cd9b31"/></g><g id="change2_1"><path d="M 948.671875 623.851562 L 51.328125 623.851562 C 25.019531 623.851562 3.695312 602.523438 3.695312 576.214844 L 3.695312 405.703125 C 3.695312 379.394531 25.019531 358.070312 51.328125 358.070312 L 948.671875 358.070312 C 974.980469 358.070312 996.308594 379.394531 996.308594 405.703125 L 996.308594 576.214844 C 996.308594 602.523438 974.980469 623.851562 948.671875 623.851562" fill="#e1aa35"/></g></g></svg>